<svg width="28" height="28" viewBox="0 0 28 28" fill="none" xmlns="http://www.w3.org/2000/svg">
<path d="M16.4018 16.4018C14.2411 18.6313 14.0839 21.4107 13.8973 27.5C19.5741 27.5 23.4929 27.4804 25.5161 25.5161C27.4804 23.4929 27.5 19.3875 27.5 13.8973C21.4107 14.0938 18.6313 14.2411 16.4018 16.4018ZM0 13.8973C0 19.3875 0.0196428 23.4929 1.98393 25.5161C4.00714 27.4804 7.92589 27.5 13.6027 27.5C13.4063 21.4107 13.2589 18.6313 11.0982 16.4018C8.86875 14.2411 6.08929 14.0839 0 13.8973ZM13.6027 0C7.93571 0 4.00714 0.0196428 1.98393 1.98393C0.0196428 4.00714 0 8.1125 0 13.6027C6.08929 13.4063 8.86875 13.2589 11.0982 11.0982C13.2589 8.86875 13.4161 6.08929 13.6027 0ZM16.4018 11.0982C14.2411 8.86875 14.0839 6.08929 13.8973 0C19.5741 0 23.4929 0.0196428 25.5161 1.98393C27.4804 4.00714 27.5 8.1125 27.5 13.6027C21.4107 13.4063 18.6313 13.2589 16.4018 11.0982Z" fill="#171717"/>
</svg>
