<svg width="19" height="31" viewBox="0 0 19 31" fill="none" xmlns="http://www.w3.org/2000/svg">
<path d="M18.2018 18.9651C18.9233 18.2436 19.0263 17.2129 18.4079 16.1822C17.8925 15.3576 16.9649 14.9454 15.9342 15.1515C15.5219 15.2546 15.1096 15.4607 14.6973 15.7699C11.5021 17.9344 7.17312 17.8314 3.97791 15.6669C3.77177 15.5638 3.56562 15.4607 3.35948 15.3576C2.22569 14.8423 1.09192 15.0484 0.473489 16.0792C-0.24801 17.1099 -0.144952 18.2437 0.782691 19.1713C0.988834 19.3774 1.19498 19.4805 1.29805 19.6867L1.40113 19.7897C2.84412 20.9235 4.59634 21.645 6.86391 21.9542L5.52398 23.2942C4.3902 24.4279 3.15335 25.6648 2.01956 26.7986C1.71035 27.1078 1.29805 27.6231 1.29805 28.3446C1.29805 29.2723 1.81341 30.1999 2.74106 30.6122C3.05027 30.8184 3.35948 30.8183 3.66869 30.8183C4.18405 30.8183 4.80248 30.6122 5.21476 30.0969C6.76083 28.5508 7.9977 27.3139 9.23456 26.0771C9.33763 25.974 9.33762 25.974 9.33762 25.974C9.33762 25.974 9.4407 25.974 9.4407 26.0771C10.2653 27.0047 11.1929 27.8293 12.0175 28.7569C12.4298 29.1692 12.842 29.5815 13.2543 29.9938C13.7697 30.5091 14.182 30.7153 14.8004 30.7153C15.728 30.8184 16.7588 30.1999 17.171 29.2723C17.5833 28.4477 17.3772 27.417 16.6557 26.7986C15.625 25.7679 14.5943 24.6341 13.4605 23.6034L11.7083 21.8511C12.6359 21.7481 13.6666 21.5419 14.5943 21.1296C16.1403 20.6143 17.2741 19.8928 18.2018 18.9651Z" fill="#171717"/>
<path d="M9.33762 16.0791C13.7697 16.0791 17.3772 12.5747 17.3772 8.14263C17.3772 5.97813 16.5526 3.91672 15.0065 2.37064C13.4605 0.824574 11.5021 0 9.44069 0C5.00863 0 1.5042 3.60749 1.40112 7.93649C1.40112 10.101 2.2257 12.0593 3.77177 13.6054C5.21477 15.2546 7.17312 16.0791 9.33762 16.0791ZM7.07005 5.772C7.68848 5.15357 8.51305 4.84435 9.33762 4.84435C11.1929 4.84435 12.5328 6.28736 12.5328 8.03957C12.5328 9.89486 11.0898 11.2348 9.33762 11.2348C7.48233 11.2348 6.14241 9.79178 6.14241 8.03957C6.14241 7.215 6.45162 6.39043 7.07005 5.772Z" fill="#171717"/>
<path d="M18.2018 18.9651C18.9233 18.2436 19.0263 17.2129 18.4079 16.1822C17.8925 15.3576 16.9649 14.9454 15.9342 15.1515C15.5219 15.2546 15.1096 15.4607 14.6973 15.7699C11.5021 17.9344 7.17312 17.8314 3.97791 15.6669C3.77177 15.5638 3.56562 15.4607 3.35948 15.3576C2.22569 14.8423 1.09192 15.0484 0.473489 16.0792C-0.24801 17.1099 -0.144952 18.2437 0.782691 19.1713C0.988834 19.3774 1.19498 19.4805 1.29805 19.6867L1.40113 19.7897C2.84412 20.9235 4.59634 21.645 6.86391 21.9542L5.52398 23.2942C4.3902 24.4279 3.15335 25.6648 2.01956 26.7986C1.71035 27.1078 1.29805 27.6231 1.29805 28.3446C1.29805 29.2723 1.81341 30.1999 2.74106 30.6122C3.05027 30.8184 3.35948 30.8183 3.66869 30.8183C4.18405 30.8183 4.80248 30.6122 5.21476 30.0969C6.76083 28.5508 7.9977 27.3139 9.23456 26.0771C9.33763 25.974 9.33762 25.974 9.33762 25.974C9.33762 25.974 9.4407 25.974 9.4407 26.0771C10.2653 27.0047 11.1929 27.8293 12.0175 28.7569C12.4298 29.1692 12.842 29.5815 13.2543 29.9938C13.7697 30.5091 14.182 30.7153 14.8004 30.7153C15.728 30.8184 16.7588 30.1999 17.171 29.2723C17.5833 28.4477 17.3772 27.417 16.6557 26.7986C15.625 25.7679 14.5943 24.6341 13.4605 23.6034L11.7083 21.8511C12.6359 21.7481 13.6666 21.5419 14.5943 21.1296C16.1403 20.6143 17.2741 19.8928 18.2018 18.9651Z" fill="#171717"/>
</svg>
