<svg width="31" height="20" viewBox="0 0 31 20" fill="none" xmlns="http://www.w3.org/2000/svg">
<path d="M16.476 19.25C6.1407 19.25 0.245628 12.024 0 0H5.17708C5.34713 8.82532 9.16381 12.5636 12.1869 13.3343V0H17.0617V7.61136C20.047 7.28378 23.1835 3.81532 24.2416 0H29.1163C28.7176 1.97873 27.9228 3.85227 26.7817 5.50344C25.6406 7.1546 24.1776 8.54787 22.4844 9.59609C24.3744 10.5539 26.0439 11.9096 27.3825 13.5736C28.721 15.2377 29.6984 17.1724 30.25 19.25H24.884C24.3888 17.4455 23.3824 15.8301 21.9909 14.6064C20.5994 13.3827 18.8847 12.605 17.0617 12.3709V19.25H16.476Z" fill="#171717"/>
</svg>
